<svg width="100" height="94" viewBox="0 0 100 94" fill="none" xmlns="http://www.w3.org/2000/svg">
<g clip-path="url(#clip0)">
<path fill-rule="evenodd" clip-rule="evenodd" d="M96.4489 87.9603H95.618V89.0651H96.4489C96.8427 89.0651 97.0705 88.8145 97.0705 88.5224C97.0705 88.2095 96.8427 87.9603 96.4489 87.9603ZM95.618 89.7948V91.2127H94.7458V87.2084H96.4904C97.3611 87.2084 97.9007 87.6888 97.9007 88.5224C97.9007 89.1482 97.5686 89.565 97.029 89.7117L98.0454 91.2127H97.0705L96.1371 89.7948H95.618ZM96.2201 86.0412C94.4978 86.0412 93.0857 87.3759 93.0857 89.2534C93.0857 91.1088 94.4978 92.4436 96.2201 92.4436C97.9422 92.4436 99.3321 91.1088 99.3321 89.2534C99.3321 87.3759 97.9422 86.0412 96.2201 86.0412ZM96.2201 93.0697C94.1659 93.0697 92.4644 91.4632 92.4644 89.2534C92.4644 87.0422 94.1659 85.4361 96.2201 85.4361C98.2742 85.4361 99.9759 87.0422 99.9759 89.2534C99.9759 91.4632 98.2742 93.0697 96.2201 93.0697Z" fill="#72D34C"/>
<path fill-rule="evenodd" clip-rule="evenodd" d="M66.4054 20.6861C62.5987 20.6861 59.1474 22.6902 57.3964 25.9124L56.6455 27.3018H76.1543L75.4035 25.9124C73.6551 22.6902 70.2066 20.6861 66.4054 20.6861Z" fill="#72D34C"/>
<path fill-rule="evenodd" clip-rule="evenodd" d="M66.3998 53.2552C60.9165 53.2552 56.4539 57.5031 56.4539 62.7232C56.4539 67.9417 60.9165 72.1883 66.3998 72.1883C71.8846 72.1883 76.3417 67.9417 76.3417 62.7232C76.3417 57.5031 71.8846 53.2552 66.3998 53.2552Z" fill="#72D34C"/>
<path fill-rule="evenodd" clip-rule="evenodd" d="M80.9737 31.2914L80.913 31.9719H56.5242L56.965 33.2291C58.329 37.0833 62.122 39.673 66.4054 39.673C69.6031 39.673 72.6288 38.1888 74.501 35.7061L74.9213 35.1393L78.7377 37.754L78.2746 38.3757C75.533 42.029 71.0939 44.2098 66.4054 44.2098C58.3429 44.2098 51.7848 37.9286 51.7848 30.2067C51.7848 22.4847 58.3429 16.2027 66.4054 16.2027C74.4585 16.2027 81.0164 22.4847 81.0164 30.2067C81.0164 30.5735 81.0011 30.9342 80.9737 31.2914ZM66.3998 76.7283C58.3388 76.7283 51.7876 70.4464 51.7876 62.7232C51.7876 55.0027 58.3388 48.718 66.3998 48.718C74.4569 48.718 81.0136 55.0027 81.0136 62.7232C81.0136 70.4464 74.4569 76.7283 66.3998 76.7283ZM47.066 33.8847C47.066 39.2971 42.6861 43.6981 37.2985 43.6981C34.7993 43.6981 32.3262 42.6902 30.5104 40.9317L29.8607 40.3023L29.2131 40.9317C27.3966 42.6902 24.9243 43.6981 22.4287 43.6981C17.0408 43.6981 12.6591 39.2971 12.6591 33.8847V16.7151H17.3226V33.8847C17.3226 36.7148 19.611 39.0147 22.4287 39.0147C25.2426 39.0147 27.5351 36.7148 27.5351 33.8847V16.7151H32.1899V33.8847C32.1899 36.7148 34.4811 39.0147 37.2985 39.0147C40.1124 39.0147 42.4024 36.7148 42.4024 33.8847V16.7151H47.066V33.8847ZM47.066 76.2147H42.4058V59.0443C42.4058 56.2141 40.114 53.9102 37.2999 53.9102C34.4811 53.9102 32.1932 56.2141 32.1932 59.0443V76.2147H27.5365V59.0443C27.5365 56.2141 25.2481 53.9102 22.4271 53.9102C19.6145 53.9102 17.3254 56.2141 17.3254 59.0443V76.2147H12.6624V59.0443C12.6624 53.636 17.0464 49.2316 22.4271 49.2316C24.9272 49.2316 27.4042 50.2382 29.2215 51.9967L29.865 52.6267L30.5152 51.9967C32.3352 50.2382 34.8048 49.2316 37.2999 49.2316C42.6835 49.2316 47.066 53.636 47.066 59.0443V76.2147ZM92.577 16.7282C92.577 7.51851 85.1468 0.055603 75.9849 0.055603H16.6131C7.44835 0.055603 0.0244141 7.51851 0.0244141 16.7282V76.3988C0.0244141 85.6008 7.44835 93.0697 16.6131 93.0697H75.9849C85.1468 93.0697 92.577 85.6008 92.577 76.3988V16.7282Z" fill="#72D34C"/>
</g>
<defs>
<clipPath id="clip0">
<rect width="100" height="93.125" fill="white"/>
</clipPath>
</defs>
</svg>
