<svg width="918" height="196" viewBox="0 0 918 196" fill="none" xmlns="http://www.w3.org/2000/svg">
<rect x="219.5" y="36.5" width="698" height="159" rx="7.5" stroke="#979797"/>
<rect y="89" width="195" height="87" rx="8" fill="black" fill-opacity="0.1"/>
<rect x="241" y="89" width="189" height="87" rx="8" fill="black" fill-opacity="0.1"/>
<rect x="473" y="89" width="189" height="87" rx="8" fill="black" fill-opacity="0.1"/>
<rect x="705" y="89" width="189" height="87" rx="8" fill="black" fill-opacity="0.1"/>
<path d="M34.2021 123.432C34.2021 124.592 33.7832 125.506 32.9453 126.174C32.1133 126.842 30.9531 127.176 29.4648 127.176C28.0938 127.176 26.8809 126.918 25.8262 126.402V123.871C26.6934 124.258 27.4258 124.53 28.0234 124.688C28.627 124.847 29.1777 124.926 29.6758 124.926C30.2734 124.926 30.7305 124.812 31.0469 124.583C31.3691 124.354 31.5303 124.015 31.5303 123.563C31.5303 123.312 31.46 123.089 31.3193 122.896C31.1787 122.696 30.9707 122.506 30.6953 122.324C30.4258 122.143 29.8721 121.853 29.0342 121.454C28.249 121.085 27.6602 120.73 27.2676 120.391C26.875 120.051 26.5615 119.655 26.3271 119.204C26.0928 118.753 25.9756 118.226 25.9756 117.622C25.9756 116.485 26.3594 115.592 27.127 114.941C27.9004 114.291 28.9668 113.966 30.3262 113.966C30.9941 113.966 31.6299 114.045 32.2334 114.203C32.8428 114.361 33.4785 114.584 34.1406 114.871L33.2617 116.989C32.5762 116.708 32.0078 116.512 31.5566 116.4C31.1113 116.289 30.6719 116.233 30.2383 116.233C29.7227 116.233 29.3271 116.354 29.0518 116.594C28.7764 116.834 28.6387 117.147 28.6387 117.534C28.6387 117.774 28.6943 117.985 28.8057 118.167C28.917 118.343 29.0928 118.516 29.333 118.686C29.5791 118.85 30.1562 119.148 31.0645 119.582C32.2656 120.156 33.0889 120.733 33.5342 121.313C33.9795 121.888 34.2021 122.594 34.2021 123.432ZM43.2812 127L42.9209 125.743H42.7803C42.4932 126.2 42.0859 126.555 41.5586 126.807C41.0312 127.053 40.4307 127.176 39.7568 127.176C38.6025 127.176 37.7324 126.868 37.1465 126.253C36.5605 125.632 36.2676 124.741 36.2676 123.581V117.174H38.9482V122.913C38.9482 123.622 39.0742 124.155 39.3262 124.513C39.5781 124.864 39.9795 125.04 40.5303 125.04C41.2803 125.04 41.8223 124.791 42.1562 124.293C42.4902 123.789 42.6572 122.957 42.6572 121.797V117.174H45.3379V127H43.2812ZM53.6172 116.989C54.7773 116.989 55.6855 117.443 56.3418 118.352C56.998 119.254 57.3262 120.493 57.3262 122.069C57.3262 123.692 56.9863 124.949 56.3066 125.84C55.6328 126.73 54.7129 127.176 53.5469 127.176C52.3926 127.176 51.4873 126.757 50.8311 125.919H50.6465L50.1982 127H48.1504V113.324H50.8311V116.506C50.8311 116.91 50.7959 117.558 50.7256 118.448H50.8311C51.458 117.476 52.3867 116.989 53.6172 116.989ZM52.7559 119.134C52.0938 119.134 51.6104 119.339 51.3057 119.749C51.001 120.153 50.8428 120.824 50.8311 121.762V122.052C50.8311 123.106 50.9863 123.862 51.2969 124.319C51.6133 124.776 52.1113 125.005 52.791 125.005C53.3418 125.005 53.7783 124.753 54.1006 124.249C54.4287 123.739 54.5928 123.001 54.5928 122.034C54.5928 121.067 54.4287 120.344 54.1006 119.863C53.7725 119.377 53.3242 119.134 52.7559 119.134ZM68.3389 127H65.6582V121.261C65.6582 120.552 65.5381 120.021 65.2979 119.67C65.0635 119.312 64.6914 119.134 64.1816 119.134C63.4961 119.134 62.998 119.386 62.6875 119.89C62.377 120.394 62.2217 121.223 62.2217 122.377V127H59.541V117.174H61.5889L61.9492 118.431H62.0986C62.3623 117.979 62.7432 117.628 63.2412 117.376C63.7393 117.118 64.3105 116.989 64.9551 116.989C66.4258 116.989 67.4219 117.47 67.9434 118.431H68.1807C68.4443 117.974 68.8311 117.619 69.3408 117.367C69.8564 117.115 70.4365 116.989 71.0811 116.989C72.1943 116.989 73.0352 117.276 73.6035 117.851C74.1777 118.419 74.4648 119.333 74.4648 120.593V127H71.7754V121.261C71.7754 120.552 71.6553 120.021 71.415 119.67C71.1807 119.312 70.8086 119.134 70.2988 119.134C69.6426 119.134 69.1504 119.368 68.8223 119.837C68.5 120.306 68.3389 121.05 68.3389 122.069V127ZM77.1104 114.634C77.1104 113.761 77.5967 113.324 78.5693 113.324C79.542 113.324 80.0283 113.761 80.0283 114.634C80.0283 115.05 79.9053 115.375 79.6592 115.609C79.4189 115.838 79.0557 115.952 78.5693 115.952C77.5967 115.952 77.1104 115.513 77.1104 114.634ZM79.9053 127H77.2246V117.174H79.9053V127ZM86.8662 125.04C87.335 125.04 87.8975 124.938 88.5537 124.732V126.728C87.8857 127.026 87.0654 127.176 86.0928 127.176C85.0205 127.176 84.2383 126.906 83.7461 126.367C83.2598 125.822 83.0166 125.008 83.0166 123.924V119.187H81.7334V118.053L83.21 117.156L83.9834 115.082H85.6973V117.174H88.4482V119.187H85.6973V123.924C85.6973 124.305 85.8027 124.586 86.0137 124.768C86.2305 124.949 86.5146 125.04 86.8662 125.04ZM30.4756 143.896C29.9072 143.896 29.4619 144.078 29.1396 144.441C28.8174 144.799 28.6328 145.309 28.5859 145.971H32.3477C32.3359 145.309 32.1631 144.799 31.8291 144.441C31.4951 144.078 31.0439 143.896 30.4756 143.896ZM30.8535 152.176C29.2715 152.176 28.0352 151.739 27.1445 150.866C26.2539 149.993 25.8086 148.757 25.8086 147.157C25.8086 145.511 26.2188 144.239 27.0391 143.343C27.8652 142.44 29.0049 141.989 30.458 141.989C31.8467 141.989 32.9277 142.385 33.7012 143.176C34.4746 143.967 34.8613 145.06 34.8613 146.454V147.755H28.5244C28.5537 148.517 28.7793 149.111 29.2012 149.539C29.623 149.967 30.2148 150.181 30.9766 150.181C31.5684 150.181 32.1279 150.119 32.6553 149.996C33.1826 149.873 33.7334 149.677 34.3076 149.407V151.481C33.8389 151.716 33.3379 151.889 32.8047 152C32.2715 152.117 31.6211 152.176 30.8535 152.176ZM45.8389 152H43.1582V146.261C43.1582 145.552 43.0381 145.021 42.7979 144.67C42.5635 144.312 42.1914 144.134 41.6816 144.134C40.9961 144.134 40.498 144.386 40.1875 144.89C39.877 145.394 39.7217 146.223 39.7217 147.377V152H37.041V142.174H39.0889L39.4492 143.431H39.5986C39.8623 142.979 40.2432 142.628 40.7412 142.376C41.2393 142.118 41.8105 141.989 42.4551 141.989C43.9258 141.989 44.9219 142.47 45.4434 143.431H45.6807C45.9443 142.974 46.3311 142.619 46.8408 142.367C47.3564 142.115 47.9365 141.989 48.5811 141.989C49.6943 141.989 50.5352 142.276 51.1035 142.851C51.6777 143.419 51.9648 144.333 51.9648 145.593V152H49.2754V146.261C49.2754 145.552 49.1553 145.021 48.915 144.67C48.6807 144.312 48.3086 144.134 47.7988 144.134C47.1426 144.134 46.6504 144.368 46.3223 144.837C46 145.306 45.8389 146.05 45.8389 147.069V152ZM60.1211 152.176C58.9668 152.176 58.0615 151.757 57.4053 150.919H57.2646C57.3584 151.739 57.4053 152.214 57.4053 152.343V156.324H54.7246V142.174H56.9043L57.2822 143.448H57.4053C58.0322 142.476 58.9609 141.989 60.1914 141.989C61.3516 141.989 62.2598 142.438 62.916 143.334C63.5723 144.23 63.9004 145.476 63.9004 147.069C63.9004 148.118 63.7451 149.029 63.4346 149.803C63.1299 150.576 62.6934 151.165 62.125 151.569C61.5566 151.974 60.8887 152.176 60.1211 152.176ZM59.3301 144.134C58.668 144.134 58.1846 144.339 57.8799 144.749C57.5752 145.153 57.417 145.824 57.4053 146.762V147.052C57.4053 148.106 57.5605 148.862 57.8711 149.319C58.1875 149.776 58.6855 150.005 59.3652 150.005C60.5664 150.005 61.167 149.015 61.167 147.034C61.167 146.067 61.0176 145.344 60.7188 144.863C60.4258 144.377 59.9629 144.134 59.3301 144.134ZM68.7959 152H66.1152V138.324H68.7959V152ZM73.7529 147.069C73.7529 148.042 73.9111 148.777 74.2275 149.275C74.5498 149.773 75.0713 150.022 75.792 150.022C76.5068 150.022 77.0195 149.776 77.3301 149.284C77.6465 148.786 77.8047 148.048 77.8047 147.069C77.8047 146.097 77.6465 145.367 77.3301 144.881C77.0137 144.395 76.4951 144.151 75.7744 144.151C75.0596 144.151 74.5439 144.395 74.2275 144.881C73.9111 145.361 73.7529 146.091 73.7529 147.069ZM80.5469 147.069C80.5469 148.669 80.125 149.92 79.2812 150.822C78.4375 151.725 77.2627 152.176 75.7568 152.176C74.8135 152.176 73.9814 151.971 73.2607 151.561C72.54 151.145 71.9863 150.55 71.5996 149.776C71.2129 149.003 71.0195 148.101 71.0195 147.069C71.0195 145.464 71.4385 144.216 72.2764 143.325C73.1143 142.435 74.292 141.989 75.8096 141.989C76.7529 141.989 77.585 142.194 78.3057 142.604C79.0264 143.015 79.5801 143.604 79.9668 144.371C80.3535 145.139 80.5469 146.038 80.5469 147.069ZM81.3555 142.174H84.291L86.1455 147.702C86.3037 148.183 86.4121 148.751 86.4707 149.407H86.5234C86.5879 148.804 86.7139 148.235 86.9014 147.702L88.7207 142.174H91.5947L87.4375 153.257C87.0566 154.282 86.5117 155.05 85.8027 155.56C85.0996 156.069 84.2764 156.324 83.333 156.324C82.8701 156.324 82.416 156.274 81.9707 156.175V154.048C82.293 154.124 82.6445 154.162 83.0254 154.162C83.5 154.162 83.9131 154.016 84.2646 153.723C84.6221 153.436 84.9004 152.999 85.0996 152.413L85.2578 151.93L81.3555 142.174ZM97.0791 143.896C96.5107 143.896 96.0654 144.078 95.7432 144.441C95.4209 144.799 95.2363 145.309 95.1895 145.971H98.9512C98.9395 145.309 98.7666 144.799 98.4326 144.441C98.0986 144.078 97.6475 143.896 97.0791 143.896ZM97.457 152.176C95.875 152.176 94.6387 151.739 93.748 150.866C92.8574 149.993 92.4121 148.757 92.4121 147.157C92.4121 145.511 92.8223 144.239 93.6426 143.343C94.4688 142.44 95.6084 141.989 97.0615 141.989C98.4502 141.989 99.5312 142.385 100.305 143.176C101.078 143.967 101.465 145.06 101.465 146.454V147.755H95.1279C95.1572 148.517 95.3828 149.111 95.8047 149.539C96.2266 149.967 96.8184 150.181 97.5801 150.181C98.1719 150.181 98.7314 150.119 99.2588 149.996C99.7861 149.873 100.337 149.677 100.911 149.407V151.481C100.442 151.716 99.9414 151.889 99.4082 152C98.875 152.117 98.2246 152.176 97.457 152.176ZM107.714 143.896C107.146 143.896 106.7 144.078 106.378 144.441C106.056 144.799 105.871 145.309 105.824 145.971H109.586C109.574 145.309 109.401 144.799 109.067 144.441C108.733 144.078 108.282 143.896 107.714 143.896ZM108.092 152.176C106.51 152.176 105.273 151.739 104.383 150.866C103.492 149.993 103.047 148.757 103.047 147.157C103.047 145.511 103.457 144.239 104.277 143.343C105.104 142.44 106.243 141.989 107.696 141.989C109.085 141.989 110.166 142.385 110.939 143.176C111.713 143.967 112.1 145.06 112.1 146.454V147.755H105.763C105.792 148.517 106.018 149.111 106.439 149.539C106.861 149.967 107.453 150.181 108.215 150.181C108.807 150.181 109.366 150.119 109.894 149.996C110.421 149.873 110.972 149.677 111.546 149.407V151.481C111.077 151.716 110.576 151.889 110.043 152C109.51 152.117 108.859 152.176 108.092 152.176ZM122.066 152.176C120.912 152.176 120.004 151.728 119.342 150.831C118.686 149.935 118.357 148.692 118.357 147.104C118.357 145.493 118.691 144.239 119.359 143.343C120.033 142.44 120.959 141.989 122.137 141.989C123.373 141.989 124.316 142.47 124.967 143.431H125.055C124.92 142.698 124.853 142.045 124.853 141.471V138.324H127.542V152H125.485L124.967 150.726H124.853C124.243 151.692 123.314 152.176 122.066 152.176ZM123.007 150.04C123.692 150.04 124.193 149.841 124.51 149.442C124.832 149.044 125.008 148.367 125.037 147.412V147.122C125.037 146.067 124.873 145.312 124.545 144.854C124.223 144.397 123.695 144.169 122.963 144.169C122.365 144.169 121.899 144.424 121.565 144.934C121.237 145.438 121.073 146.173 121.073 147.14C121.073 148.106 121.24 148.833 121.574 149.319C121.908 149.8 122.386 150.04 123.007 150.04ZM136.586 152L136.067 150.664H135.997C135.546 151.232 135.08 151.628 134.6 151.851C134.125 152.067 133.504 152.176 132.736 152.176C131.793 152.176 131.049 151.906 130.504 151.367C129.965 150.828 129.695 150.061 129.695 149.064C129.695 148.021 130.059 147.254 130.785 146.762C131.518 146.264 132.619 145.988 134.09 145.936L135.795 145.883V145.452C135.795 144.456 135.285 143.958 134.266 143.958C133.48 143.958 132.558 144.195 131.497 144.67L130.609 142.859C131.74 142.268 132.994 141.972 134.371 141.972C135.689 141.972 136.7 142.259 137.403 142.833C138.106 143.407 138.458 144.28 138.458 145.452V152H136.586ZM135.795 147.447L134.758 147.482C133.979 147.506 133.398 147.646 133.018 147.904C132.637 148.162 132.446 148.555 132.446 149.082C132.446 149.838 132.88 150.216 133.747 150.216C134.368 150.216 134.863 150.037 135.232 149.68C135.607 149.322 135.795 148.848 135.795 148.256V147.447ZM145.366 150.04C145.835 150.04 146.397 149.938 147.054 149.732V151.728C146.386 152.026 145.565 152.176 144.593 152.176C143.521 152.176 142.738 151.906 142.246 151.367C141.76 150.822 141.517 150.008 141.517 148.924V144.187H140.233V143.053L141.71 142.156L142.483 140.082H144.197V142.174H146.948V144.187H144.197V148.924C144.197 149.305 144.303 149.586 144.514 149.768C144.73 149.949 145.015 150.04 145.366 150.04ZM155.289 152L154.771 150.664H154.7C154.249 151.232 153.783 151.628 153.303 151.851C152.828 152.067 152.207 152.176 151.439 152.176C150.496 152.176 149.752 151.906 149.207 151.367C148.668 150.828 148.398 150.061 148.398 149.064C148.398 148.021 148.762 147.254 149.488 146.762C150.221 146.264 151.322 145.988 152.793 145.936L154.498 145.883V145.452C154.498 144.456 153.988 143.958 152.969 143.958C152.184 143.958 151.261 144.195 150.2 144.67L149.312 142.859C150.443 142.268 151.697 141.972 153.074 141.972C154.393 141.972 155.403 142.259 156.106 142.833C156.81 143.407 157.161 144.28 157.161 145.452V152H155.289ZM154.498 147.447L153.461 147.482C152.682 147.506 152.102 147.646 151.721 147.904C151.34 148.162 151.149 148.555 151.149 149.082C151.149 149.838 151.583 150.216 152.45 150.216C153.071 150.216 153.566 150.037 153.936 149.68C154.311 149.322 154.498 148.848 154.498 148.256V147.447Z" fill="black"/>
<path d="M13.0234 65.4521C13.0234 67.5732 12.4463 69.1963 11.292 70.3213C10.1436 71.4404 8.48828 72 6.32617 72H2.7666V59.1504H6.7041C8.70215 59.1504 10.2549 59.7041 11.3623 60.8115C12.4697 61.9189 13.0234 63.4658 13.0234 65.4521ZM11.4414 65.5049C11.4414 63.8291 11.0195 62.5664 10.1758 61.7168C9.33789 60.8672 8.08984 60.4424 6.43164 60.4424H4.26074V70.708H6.08008C7.86133 70.708 9.2002 70.2715 10.0967 69.3984C10.9932 68.5195 11.4414 67.2217 11.4414 65.5049ZM17.0488 62.3672V68.6162C17.0488 69.4014 17.2275 69.9873 17.585 70.374C17.9424 70.7607 18.502 70.9541 19.2637 70.9541C20.2715 70.9541 21.0068 70.6787 21.4697 70.1279C21.9385 69.5771 22.1729 68.6777 22.1729 67.4297V62.3672H23.6318V72H22.4277L22.2168 70.708H22.1377C21.8389 71.1826 21.4229 71.5459 20.8896 71.7979C20.3623 72.0498 19.7588 72.1758 19.0791 72.1758C17.9072 72.1758 17.0283 71.8975 16.4424 71.3408C15.8623 70.7842 15.5723 69.8936 15.5723 68.6689V62.3672H17.0488ZM31.1289 62.1914C31.5566 62.1914 31.9404 62.2266 32.2803 62.2969L32.0781 63.6504C31.6797 63.5625 31.3281 63.5186 31.0234 63.5186C30.2441 63.5186 29.5762 63.835 29.0195 64.4678C28.4688 65.1006 28.1934 65.8887 28.1934 66.832V72H26.7344V62.3672H27.9385L28.1055 64.1514H28.1758C28.5332 63.5244 28.9639 63.041 29.4678 62.7012C29.9717 62.3613 30.5254 62.1914 31.1289 62.1914ZM35.541 72H34.082V62.3672H35.541V72ZM33.959 59.7568C33.959 59.4229 34.041 59.1797 34.2051 59.0273C34.3691 58.8691 34.5742 58.79 34.8203 58.79C35.0547 58.79 35.2568 58.8691 35.4268 59.0273C35.5967 59.1855 35.6816 59.4287 35.6816 59.7568C35.6816 60.085 35.5967 60.3311 35.4268 60.4951C35.2568 60.6533 35.0547 60.7324 34.8203 60.7324C34.5742 60.7324 34.3691 60.6533 34.2051 60.4951C34.041 60.3311 33.959 60.085 33.959 59.7568ZM45.2266 72V65.7686C45.2266 64.9834 45.0479 64.3975 44.6904 64.0107C44.333 63.624 43.7734 63.4307 43.0117 63.4307C42.0039 63.4307 41.2656 63.7031 40.7969 64.248C40.3281 64.793 40.0938 65.6924 40.0938 66.9463V72H38.6348V62.3672H39.8213L40.0586 63.6855H40.1289C40.4277 63.2109 40.8467 62.8447 41.3857 62.5869C41.9248 62.3232 42.5254 62.1914 43.1875 62.1914C44.3477 62.1914 45.2207 62.4727 45.8066 63.0352C46.3926 63.5918 46.6855 64.4854 46.6855 65.7158V72H45.2266ZM57.5752 62.3672V63.29L55.791 63.501C55.9551 63.7061 56.1016 63.9756 56.2305 64.3096C56.3594 64.6377 56.4238 65.0098 56.4238 65.4258C56.4238 66.3691 56.1016 67.1221 55.457 67.6846C54.8125 68.2471 53.9277 68.5283 52.8027 68.5283C52.5156 68.5283 52.2461 68.5049 51.9941 68.458C51.373 68.7861 51.0625 69.1992 51.0625 69.6973C51.0625 69.9609 51.1709 70.1572 51.3877 70.2861C51.6045 70.4092 51.9766 70.4707 52.5039 70.4707H54.209C55.252 70.4707 56.0518 70.6904 56.6084 71.1299C57.1709 71.5693 57.4521 72.208 57.4521 73.0459C57.4521 74.1123 57.0244 74.9238 56.1689 75.4805C55.3135 76.043 54.0654 76.3242 52.4248 76.3242C51.165 76.3242 50.1924 76.0898 49.5068 75.6211C48.8271 75.1523 48.4873 74.4902 48.4873 73.6348C48.4873 73.0488 48.6748 72.542 49.0498 72.1143C49.4248 71.6865 49.9521 71.3965 50.6318 71.2441C50.3857 71.1328 50.1777 70.96 50.0078 70.7256C49.8438 70.4912 49.7617 70.2188 49.7617 69.9082C49.7617 69.5566 49.8555 69.249 50.043 68.9854C50.2305 68.7217 50.5264 68.4668 50.9307 68.2207C50.4326 68.0156 50.0254 67.667 49.709 67.1748C49.3984 66.6826 49.2432 66.1201 49.2432 65.4873C49.2432 64.4326 49.5596 63.6211 50.1924 63.0527C50.8252 62.4785 51.7217 62.1914 52.8818 62.1914C53.3857 62.1914 53.8398 62.25 54.2441 62.3672H57.5752ZM49.8936 73.6172C49.8936 74.1387 50.1133 74.5342 50.5527 74.8037C50.9922 75.0732 51.6221 75.208 52.4424 75.208C53.667 75.208 54.5723 75.0234 55.1582 74.6543C55.75 74.291 56.0459 73.7959 56.0459 73.1689C56.0459 72.6475 55.8848 72.2842 55.5625 72.0791C55.2402 71.8799 54.6338 71.7803 53.7432 71.7803H51.9941C51.332 71.7803 50.8164 71.9385 50.4473 72.2549C50.0781 72.5713 49.8936 73.0254 49.8936 73.6172ZM50.6846 65.4521C50.6846 66.126 50.875 66.6357 51.2559 66.9814C51.6367 67.3271 52.167 67.5 52.8467 67.5C54.2705 67.5 54.9824 66.8086 54.9824 65.4258C54.9824 63.9785 54.2617 63.2549 52.8203 63.2549C52.1348 63.2549 51.6074 63.4395 51.2383 63.8086C50.8691 64.1777 50.6846 64.7256 50.6846 65.4521ZM67.3398 70.9717C67.5977 70.9717 67.8467 70.9541 68.0869 70.9189C68.3271 70.8779 68.5176 70.8369 68.6582 70.7959V71.9121C68.5 71.9883 68.2656 72.0498 67.9551 72.0967C67.6504 72.1494 67.375 72.1758 67.1289 72.1758C65.2656 72.1758 64.334 71.1943 64.334 69.2314V63.501H62.9541V62.7979L64.334 62.1914L64.9492 60.1348H65.793V62.3672H68.5879V63.501H65.793V69.1699C65.793 69.75 65.9307 70.1953 66.2061 70.5059C66.4814 70.8164 66.8594 70.9717 67.3398 70.9717ZM77.1836 72V65.7686C77.1836 64.9834 77.0049 64.3975 76.6475 64.0107C76.29 63.624 75.7305 63.4307 74.9688 63.4307C73.9551 63.4307 73.2139 63.7061 72.7451 64.2568C72.2822 64.8076 72.0508 65.71 72.0508 66.9639V72H70.5918V58.3242H72.0508V62.4639C72.0508 62.9619 72.0273 63.375 71.9805 63.7031H72.0684C72.3555 63.2402 72.7627 62.877 73.29 62.6133C73.8232 62.3438 74.4297 62.209 75.1094 62.209C76.2871 62.209 77.1689 62.4902 77.7549 63.0527C78.3467 63.6094 78.6426 64.4971 78.6426 65.7158V72H77.1836ZM85.7178 72.1758C84.2939 72.1758 83.1689 71.7422 82.3428 70.875C81.5225 70.0078 81.1123 68.8037 81.1123 67.2627C81.1123 65.71 81.4932 64.4766 82.2549 63.5625C83.0225 62.6484 84.0508 62.1914 85.3398 62.1914C86.5469 62.1914 87.502 62.5898 88.2051 63.3867C88.9082 64.1777 89.2598 65.2236 89.2598 66.5244V67.4473H82.624C82.6533 68.5781 82.9375 69.4365 83.4766 70.0225C84.0215 70.6084 84.7861 70.9014 85.7705 70.9014C86.8076 70.9014 87.833 70.6846 88.8467 70.251V71.5518C88.3311 71.7744 87.8418 71.9326 87.3789 72.0264C86.9219 72.126 86.3682 72.1758 85.7178 72.1758ZM85.3223 63.4131C84.5488 63.4131 83.9307 63.665 83.4678 64.1689C83.0107 64.6729 82.7412 65.3701 82.6592 66.2607H87.6953C87.6953 65.3408 87.4902 64.6377 87.0801 64.1514C86.6699 63.6592 86.084 63.4131 85.3223 63.4131ZM94.9023 62.3672H96.4668L98.5762 67.8604C99.0391 69.1143 99.3262 70.0195 99.4375 70.5762H99.5078C99.584 70.2773 99.7422 69.7676 99.9824 69.0469C100.229 68.3203 101.025 66.0938 102.373 62.3672H103.938L99.7979 73.3359C99.3877 74.4199 98.9072 75.1875 98.3564 75.6387C97.8115 76.0957 97.1406 76.3242 96.3438 76.3242C95.8984 76.3242 95.459 76.2744 95.0254 76.1748V75.0059C95.3477 75.0762 95.708 75.1113 96.1064 75.1113C97.1084 75.1113 97.8232 74.5488 98.251 73.4238L98.7871 72.0527L94.9023 62.3672ZM109.571 72.1758C108.147 72.1758 107.022 71.7422 106.196 70.875C105.376 70.0078 104.966 68.8037 104.966 67.2627C104.966 65.71 105.347 64.4766 106.108 63.5625C106.876 62.6484 107.904 62.1914 109.193 62.1914C110.4 62.1914 111.355 62.5898 112.059 63.3867C112.762 64.1777 113.113 65.2236 113.113 66.5244V67.4473H106.478C106.507 68.5781 106.791 69.4365 107.33 70.0225C107.875 70.6084 108.64 70.9014 109.624 70.9014C110.661 70.9014 111.687 70.6846 112.7 70.251V71.5518C112.185 71.7744 111.695 71.9326 111.232 72.0264C110.775 72.126 110.222 72.1758 109.571 72.1758ZM109.176 63.4131C108.402 63.4131 107.784 63.665 107.321 64.1689C106.864 64.6729 106.595 65.3701 106.513 66.2607H111.549C111.549 65.3408 111.344 64.6377 110.934 64.1514C110.523 63.6592 109.938 63.4131 109.176 63.4131ZM121.533 72L121.243 70.6289H121.173C120.692 71.2324 120.212 71.6426 119.731 71.8594C119.257 72.0703 118.662 72.1758 117.947 72.1758C116.992 72.1758 116.242 71.9297 115.697 71.4375C115.158 70.9453 114.889 70.2451 114.889 69.3369C114.889 67.3916 116.444 66.3721 119.556 66.2783L121.19 66.2256V65.6279C121.19 64.8721 121.026 64.3154 120.698 63.958C120.376 63.5947 119.857 63.4131 119.143 63.4131C118.34 63.4131 117.432 63.6592 116.418 64.1514L115.97 63.0352C116.444 62.7773 116.963 62.5752 117.525 62.4287C118.094 62.2822 118.662 62.209 119.23 62.209C120.379 62.209 121.229 62.4639 121.779 62.9736C122.336 63.4834 122.614 64.3008 122.614 65.4258V72H121.533ZM118.237 70.9717C119.146 70.9717 119.857 70.7227 120.373 70.2246C120.895 69.7266 121.155 69.0293 121.155 68.1328V67.2627L119.696 67.3242C118.536 67.3652 117.698 67.5469 117.183 67.8691C116.673 68.1855 116.418 68.6807 116.418 69.3545C116.418 69.8818 116.576 70.2832 116.893 70.5586C117.215 70.834 117.663 70.9717 118.237 70.9717ZM130.023 62.1914C130.451 62.1914 130.835 62.2266 131.175 62.2969L130.973 63.6504C130.574 63.5625 130.223 63.5186 129.918 63.5186C129.139 63.5186 128.471 63.835 127.914 64.4678C127.363 65.1006 127.088 65.8887 127.088 66.832V72H125.629V62.3672H126.833L127 64.1514H127.07C127.428 63.5244 127.858 63.041 128.362 62.7012C128.866 62.3613 129.42 62.1914 130.023 62.1914Z" fill="black"/>
<path d="M227.93 19H220.767V6.15039H227.93V7.47754H222.261V11.6172H227.587V12.9355H222.261V17.6641H227.93V19ZM237.158 19V12.7686C237.158 11.9834 236.979 11.3975 236.622 11.0107C236.265 10.624 235.705 10.4307 234.943 10.4307C233.936 10.4307 233.197 10.7031 232.729 11.248C232.26 11.793 232.025 12.6924 232.025 13.9463V19H230.566V9.36719H231.753L231.99 10.6855H232.061C232.359 10.2109 232.778 9.84473 233.317 9.58691C233.856 9.32324 234.457 9.19141 235.119 9.19141C236.279 9.19141 237.152 9.47266 237.738 10.0352C238.324 10.5918 238.617 11.4854 238.617 12.7158V19H237.158ZM248.18 17.708H248.101C247.427 18.6865 246.419 19.1758 245.077 19.1758C243.817 19.1758 242.836 18.7451 242.133 17.8838C241.436 17.0225 241.087 15.7979 241.087 14.21C241.087 12.6221 241.438 11.3887 242.142 10.5098C242.845 9.63086 243.823 9.19141 245.077 9.19141C246.384 9.19141 247.386 9.66602 248.083 10.6152H248.197L248.136 9.9209L248.101 9.24414V5.32422H249.56V19H248.373L248.18 17.708ZM245.262 17.9541C246.258 17.9541 246.979 17.6846 247.424 17.1455C247.875 16.6006 248.101 15.7246 248.101 14.5176V14.21C248.101 12.8447 247.872 11.8721 247.415 11.292C246.964 10.7061 246.24 10.4131 245.244 10.4131C244.389 10.4131 243.732 10.7471 243.275 11.415C242.824 12.0771 242.599 13.0146 242.599 14.2275C242.599 15.458 242.824 16.3867 243.275 17.0137C243.727 17.6406 244.389 17.9541 245.262 17.9541ZM265.652 14.1748C265.652 15.7451 265.257 16.9727 264.466 17.8574C263.675 18.7363 262.582 19.1758 261.188 19.1758C260.326 19.1758 259.562 18.9736 258.894 18.5693C258.226 18.165 257.71 17.585 257.347 16.8291C256.983 16.0732 256.802 15.1885 256.802 14.1748C256.802 12.6045 257.194 11.3828 257.979 10.5098C258.765 9.63086 259.854 9.19141 261.249 9.19141C262.597 9.19141 263.666 9.63965 264.457 10.5361C265.254 11.4326 265.652 12.6455 265.652 14.1748ZM258.313 14.1748C258.313 15.4053 258.56 16.3428 259.052 16.9873C259.544 17.6318 260.268 17.9541 261.223 17.9541C262.178 17.9541 262.901 17.6348 263.394 16.9961C263.892 16.3516 264.141 15.4111 264.141 14.1748C264.141 12.9502 263.892 12.0215 263.394 11.3887C262.901 10.75 262.172 10.4307 261.205 10.4307C260.25 10.4307 259.529 10.7441 259.043 11.3711C258.557 11.998 258.313 12.9326 258.313 14.1748ZM272.561 10.501H270.108V19H268.649V10.501H266.927V9.8418L268.649 9.31445V8.77832C268.649 6.41113 269.684 5.22754 271.752 5.22754C272.262 5.22754 272.859 5.33008 273.545 5.53516L273.167 6.7041C272.604 6.52246 272.124 6.43164 271.726 6.43164C271.175 6.43164 270.768 6.61621 270.504 6.98535C270.24 7.34863 270.108 7.93457 270.108 8.74316V9.36719H272.561V10.501ZM282.105 17.9717C282.363 17.9717 282.612 17.9541 282.853 17.9189C283.093 17.8779 283.283 17.8369 283.424 17.7959V18.9121C283.266 18.9883 283.031 19.0498 282.721 19.0967C282.416 19.1494 282.141 19.1758 281.895 19.1758C280.031 19.1758 279.1 18.1943 279.1 16.2314V10.501H277.72V9.79785L279.1 9.19141L279.715 7.13477H280.559V9.36719H283.354V10.501H280.559V16.1699C280.559 16.75 280.696 17.1953 280.972 17.5059C281.247 17.8164 281.625 17.9717 282.105 17.9717ZM291.949 19V12.7686C291.949 11.9834 291.771 11.3975 291.413 11.0107C291.056 10.624 290.496 10.4307 289.734 10.4307C288.721 10.4307 287.979 10.7061 287.511 11.2568C287.048 11.8076 286.816 12.71 286.816 13.9639V19H285.357V5.32422H286.816V9.46387C286.816 9.96191 286.793 10.375 286.746 10.7031H286.834C287.121 10.2402 287.528 9.87695 288.056 9.61328C288.589 9.34375 289.195 9.20898 289.875 9.20898C291.053 9.20898 291.935 9.49023 292.521 10.0527C293.112 10.6094 293.408 11.4971 293.408 12.7158V19H291.949ZM300.483 19.1758C299.06 19.1758 297.935 18.7422 297.108 17.875C296.288 17.0078 295.878 15.8037 295.878 14.2627C295.878 12.71 296.259 11.4766 297.021 10.5625C297.788 9.64844 298.816 9.19141 300.105 9.19141C301.312 9.19141 302.268 9.58984 302.971 10.3867C303.674 11.1777 304.025 12.2236 304.025 13.5244V14.4473H297.39C297.419 15.5781 297.703 16.4365 298.242 17.0225C298.787 17.6084 299.552 17.9014 300.536 17.9014C301.573 17.9014 302.599 17.6846 303.612 17.251V18.5518C303.097 18.7744 302.607 18.9326 302.145 19.0264C301.688 19.126 301.134 19.1758 300.483 19.1758ZM300.088 10.4131C299.314 10.4131 298.696 10.665 298.233 11.1689C297.776 11.6729 297.507 12.3701 297.425 13.2607H302.461C302.461 12.3408 302.256 11.6377 301.846 11.1514C301.436 10.6592 300.85 10.4131 300.088 10.4131ZM309.668 9.36719H311.232L313.342 14.8604C313.805 16.1143 314.092 17.0195 314.203 17.5762H314.273C314.35 17.2773 314.508 16.7676 314.748 16.0469C314.994 15.3203 315.791 13.0938 317.139 9.36719H318.703L314.563 20.3359C314.153 21.4199 313.673 22.1875 313.122 22.6387C312.577 23.0957 311.906 23.3242 311.109 23.3242C310.664 23.3242 310.225 23.2744 309.791 23.1748V22.0059C310.113 22.0762 310.474 22.1113 310.872 22.1113C311.874 22.1113 312.589 21.5488 313.017 20.4238L313.553 19.0527L309.668 9.36719ZM324.337 19.1758C322.913 19.1758 321.788 18.7422 320.962 17.875C320.142 17.0078 319.731 15.8037 319.731 14.2627C319.731 12.71 320.112 11.4766 320.874 10.5625C321.642 9.64844 322.67 9.19141 323.959 9.19141C325.166 9.19141 326.121 9.58984 326.824 10.3867C327.527 11.1777 327.879 12.2236 327.879 13.5244V14.4473H321.243C321.272 15.5781 321.557 16.4365 322.096 17.0225C322.641 17.6084 323.405 17.9014 324.39 17.9014C325.427 17.9014 326.452 17.6846 327.466 17.251V18.5518C326.95 18.7744 326.461 18.9326 325.998 19.0264C325.541 19.126 324.987 19.1758 324.337 19.1758ZM323.941 10.4131C323.168 10.4131 322.55 10.665 322.087 11.1689C321.63 11.6729 321.36 12.3701 321.278 13.2607H326.314C326.314 12.3408 326.109 11.6377 325.699 11.1514C325.289 10.6592 324.703 10.4131 323.941 10.4131ZM336.299 19L336.009 17.6289H335.938C335.458 18.2324 334.978 18.6426 334.497 18.8594C334.022 19.0703 333.428 19.1758 332.713 19.1758C331.758 19.1758 331.008 18.9297 330.463 18.4375C329.924 17.9453 329.654 17.2451 329.654 16.3369C329.654 14.3916 331.21 13.3721 334.321 13.2783L335.956 13.2256V12.6279C335.956 11.8721 335.792 11.3154 335.464 10.958C335.142 10.5947 334.623 10.4131 333.908 10.4131C333.105 10.4131 332.197 10.6592 331.184 11.1514L330.735 10.0352C331.21 9.77734 331.729 9.5752 332.291 9.42871C332.859 9.28223 333.428 9.20898 333.996 9.20898C335.145 9.20898 335.994 9.46387 336.545 9.97363C337.102 10.4834 337.38 11.3008 337.38 12.4258V19H336.299ZM333.003 17.9717C333.911 17.9717 334.623 17.7227 335.139 17.2246C335.66 16.7266 335.921 16.0293 335.921 15.1328V14.2627L334.462 14.3242C333.302 14.3652 332.464 14.5469 331.948 14.8691C331.438 15.1855 331.184 15.6807 331.184 16.3545C331.184 16.8818 331.342 17.2832 331.658 17.5586C331.98 17.834 332.429 17.9717 333.003 17.9717ZM344.789 9.19141C345.217 9.19141 345.601 9.22656 345.94 9.29688L345.738 10.6504C345.34 10.5625 344.988 10.5186 344.684 10.5186C343.904 10.5186 343.236 10.835 342.68 11.4678C342.129 12.1006 341.854 12.8887 341.854 13.832V19H340.395V9.36719H341.599L341.766 11.1514H341.836C342.193 10.5244 342.624 10.041 343.128 9.70117C343.632 9.36133 344.186 9.19141 344.789 9.19141Z" fill="black"/>
<path d="M273.075 116.233C272.05 116.233 271.256 116.62 270.693 117.394C270.131 118.161 269.85 119.233 269.85 120.61C269.85 123.476 270.925 124.908 273.075 124.908C273.978 124.908 275.07 124.683 276.354 124.231V126.517C275.299 126.956 274.121 127.176 272.82 127.176C270.951 127.176 269.521 126.61 268.531 125.479C267.541 124.343 267.046 122.714 267.046 120.593C267.046 119.257 267.289 118.088 267.775 117.086C268.262 116.078 268.959 115.308 269.867 114.774C270.781 114.235 271.851 113.966 273.075 113.966C274.323 113.966 275.577 114.268 276.837 114.871L275.958 117.086C275.478 116.857 274.994 116.658 274.508 116.488C274.021 116.318 273.544 116.233 273.075 116.233ZM281.021 122.069C281.021 123.042 281.179 123.777 281.495 124.275C281.817 124.773 282.339 125.022 283.06 125.022C283.774 125.022 284.287 124.776 284.598 124.284C284.914 123.786 285.072 123.048 285.072 122.069C285.072 121.097 284.914 120.367 284.598 119.881C284.281 119.395 283.763 119.151 283.042 119.151C282.327 119.151 281.812 119.395 281.495 119.881C281.179 120.361 281.021 121.091 281.021 122.069ZM287.814 122.069C287.814 123.669 287.393 124.92 286.549 125.822C285.705 126.725 284.53 127.176 283.024 127.176C282.081 127.176 281.249 126.971 280.528 126.561C279.808 126.145 279.254 125.55 278.867 124.776C278.48 124.003 278.287 123.101 278.287 122.069C278.287 120.464 278.706 119.216 279.544 118.325C280.382 117.435 281.56 116.989 283.077 116.989C284.021 116.989 284.853 117.194 285.573 117.604C286.294 118.015 286.848 118.604 287.234 119.371C287.621 120.139 287.814 121.038 287.814 122.069ZM299.1 127H296.419V121.261C296.419 120.552 296.293 120.021 296.041 119.67C295.789 119.312 295.388 119.134 294.837 119.134C294.087 119.134 293.545 119.386 293.211 119.89C292.877 120.388 292.71 121.217 292.71 122.377V127H290.029V117.174H292.077L292.438 118.431H292.587C292.886 117.956 293.296 117.599 293.817 117.358C294.345 117.112 294.942 116.989 295.61 116.989C296.753 116.989 297.62 117.3 298.212 117.921C298.804 118.536 299.1 119.427 299.1 120.593V127ZM307.291 119.187H304.971V127H302.29V119.187H300.813V117.895L302.29 117.174V116.453C302.29 115.334 302.565 114.517 303.116 114.001C303.667 113.485 304.549 113.228 305.762 113.228C306.688 113.228 307.511 113.365 308.231 113.641L307.546 115.609C307.007 115.439 306.509 115.354 306.052 115.354C305.671 115.354 305.396 115.469 305.226 115.697C305.056 115.92 304.971 116.207 304.971 116.559V117.174H307.291V119.187ZM308.715 114.634C308.715 113.761 309.201 113.324 310.174 113.324C311.146 113.324 311.633 113.761 311.633 114.634C311.633 115.05 311.51 115.375 311.264 115.609C311.023 115.838 310.66 115.952 310.174 115.952C309.201 115.952 308.715 115.513 308.715 114.634ZM311.51 127H308.829V117.174H311.51V127ZM319.807 116.989C320.17 116.989 320.472 117.016 320.712 117.068L320.51 119.582C320.293 119.523 320.029 119.494 319.719 119.494C318.863 119.494 318.195 119.714 317.715 120.153C317.24 120.593 317.003 121.208 317.003 121.999V127H314.322V117.174H316.353L316.748 118.826H316.88C317.185 118.275 317.595 117.833 318.11 117.499C318.632 117.159 319.197 116.989 319.807 116.989ZM331.294 127H328.613V121.261C328.613 120.552 328.493 120.021 328.253 119.67C328.019 119.312 327.646 119.134 327.137 119.134C326.451 119.134 325.953 119.386 325.643 119.89C325.332 120.394 325.177 121.223 325.177 122.377V127H322.496V117.174H324.544L324.904 118.431H325.054C325.317 117.979 325.698 117.628 326.196 117.376C326.694 117.118 327.266 116.989 327.91 116.989C329.381 116.989 330.377 117.47 330.898 118.431H331.136C331.399 117.974 331.786 117.619 332.296 117.367C332.812 117.115 333.392 116.989 334.036 116.989C335.149 116.989 335.99 117.276 336.559 117.851C337.133 118.419 337.42 119.333 337.42 120.593V127H334.73V121.261C334.73 120.552 334.61 120.021 334.37 119.67C334.136 119.312 333.764 119.134 333.254 119.134C332.598 119.134 332.105 119.368 331.777 119.837C331.455 120.306 331.294 121.05 331.294 122.069V127ZM350.287 119.187H347.967V127H345.286V119.187H343.81V117.895L345.286 117.174V116.453C345.286 115.334 345.562 114.517 346.112 114.001C346.663 113.485 347.545 113.228 348.758 113.228C349.684 113.228 350.507 113.365 351.228 113.641L350.542 115.609C350.003 115.439 349.505 115.354 349.048 115.354C348.667 115.354 348.392 115.469 348.222 115.697C348.052 115.92 347.967 116.207 347.967 116.559V117.174H350.287V119.187ZM351.711 114.634C351.711 113.761 352.197 113.324 353.17 113.324C354.143 113.324 354.629 113.761 354.629 114.634C354.629 115.05 354.506 115.375 354.26 115.609C354.02 115.838 353.656 115.952 353.17 115.952C352.197 115.952 351.711 115.513 351.711 114.634ZM354.506 127H351.825V117.174H354.506V127ZM366.389 127H363.708V121.261C363.708 120.552 363.582 120.021 363.33 119.67C363.078 119.312 362.677 119.134 362.126 119.134C361.376 119.134 360.834 119.386 360.5 119.89C360.166 120.388 359.999 121.217 359.999 122.377V127H357.318V117.174H359.366L359.727 118.431H359.876C360.175 117.956 360.585 117.599 361.106 117.358C361.634 117.112 362.231 116.989 362.899 116.989C364.042 116.989 364.909 117.3 365.501 117.921C366.093 118.536 366.389 119.427 366.389 120.593V127ZM375.389 127L374.87 125.664H374.8C374.349 126.232 373.883 126.628 373.402 126.851C372.928 127.067 372.307 127.176 371.539 127.176C370.596 127.176 369.852 126.906 369.307 126.367C368.768 125.828 368.498 125.061 368.498 124.064C368.498 123.021 368.861 122.254 369.588 121.762C370.32 121.264 371.422 120.988 372.893 120.936L374.598 120.883V120.452C374.598 119.456 374.088 118.958 373.068 118.958C372.283 118.958 371.36 119.195 370.3 119.67L369.412 117.859C370.543 117.268 371.797 116.972 373.174 116.972C374.492 116.972 375.503 117.259 376.206 117.833C376.909 118.407 377.261 119.28 377.261 120.452V127H375.389ZM374.598 122.447L373.561 122.482C372.781 122.506 372.201 122.646 371.82 122.904C371.439 123.162 371.249 123.555 371.249 124.082C371.249 124.838 371.683 125.216 372.55 125.216C373.171 125.216 373.666 125.037 374.035 124.68C374.41 124.322 374.598 123.848 374.598 123.256V122.447ZM382.71 127H380.029V113.324H382.71V127ZM270.518 152.176C269.363 152.176 268.455 151.728 267.793 150.831C267.137 149.935 266.809 148.692 266.809 147.104C266.809 145.493 267.143 144.239 267.811 143.343C268.484 142.44 269.41 141.989 270.588 141.989C271.824 141.989 272.768 142.47 273.418 143.431H273.506C273.371 142.698 273.304 142.045 273.304 141.471V138.324H275.993V152H273.937L273.418 150.726H273.304C272.694 151.692 271.766 152.176 270.518 152.176ZM271.458 150.04C272.144 150.04 272.645 149.841 272.961 149.442C273.283 149.044 273.459 148.367 273.488 147.412V147.122C273.488 146.067 273.324 145.312 272.996 144.854C272.674 144.397 272.146 144.169 271.414 144.169C270.816 144.169 270.351 144.424 270.017 144.934C269.688 145.438 269.524 146.173 269.524 147.14C269.524 148.106 269.691 148.833 270.025 149.319C270.359 149.8 270.837 150.04 271.458 150.04ZM285.037 152L284.519 150.664H284.448C283.997 151.232 283.531 151.628 283.051 151.851C282.576 152.067 281.955 152.176 281.188 152.176C280.244 152.176 279.5 151.906 278.955 151.367C278.416 150.828 278.146 150.061 278.146 149.064C278.146 148.021 278.51 147.254 279.236 146.762C279.969 146.264 281.07 145.988 282.541 145.936L284.246 145.883V145.452C284.246 144.456 283.736 143.958 282.717 143.958C281.932 143.958 281.009 144.195 279.948 144.67L279.061 142.859C280.191 142.268 281.445 141.972 282.822 141.972C284.141 141.972 285.151 142.259 285.854 142.833C286.558 143.407 286.909 144.28 286.909 145.452V152H285.037ZM284.246 147.447L283.209 147.482C282.43 147.506 281.85 147.646 281.469 147.904C281.088 148.162 280.897 148.555 280.897 149.082C280.897 149.838 281.331 150.216 282.198 150.216C282.819 150.216 283.314 150.037 283.684 149.68C284.059 149.322 284.246 148.848 284.246 148.256V147.447ZM293.817 150.04C294.286 150.04 294.849 149.938 295.505 149.732V151.728C294.837 152.026 294.017 152.176 293.044 152.176C291.972 152.176 291.189 151.906 290.697 151.367C290.211 150.822 289.968 150.008 289.968 148.924V144.187H288.685V143.053L290.161 142.156L290.935 140.082H292.648V142.174H295.399V144.187H292.648V148.924C292.648 149.305 292.754 149.586 292.965 149.768C293.182 149.949 293.466 150.04 293.817 150.04ZM303.74 152L303.222 150.664H303.151C302.7 151.232 302.234 151.628 301.754 151.851C301.279 152.067 300.658 152.176 299.891 152.176C298.947 152.176 298.203 151.906 297.658 151.367C297.119 150.828 296.85 150.061 296.85 149.064C296.85 148.021 297.213 147.254 297.939 146.762C298.672 146.264 299.773 145.988 301.244 145.936L302.949 145.883V145.452C302.949 144.456 302.439 143.958 301.42 143.958C300.635 143.958 299.712 144.195 298.651 144.67L297.764 142.859C298.895 142.268 300.148 141.972 301.525 141.972C302.844 141.972 303.854 142.259 304.558 142.833C305.261 143.407 305.612 144.28 305.612 145.452V152H303.74ZM302.949 147.447L301.912 147.482C301.133 147.506 300.553 147.646 300.172 147.904C299.791 148.162 299.601 148.555 299.601 149.082C299.601 149.838 300.034 150.216 300.901 150.216C301.522 150.216 302.018 150.037 302.387 149.68C302.762 149.322 302.949 148.848 302.949 148.256V147.447Z" fill="black"/>
<path d="M250.483 72L249.552 68.9414H244.867L243.936 72H241L245.535 59.0977H248.866L253.419 72H250.483ZM248.901 66.6562C248.04 63.8848 247.554 62.3174 247.442 61.9541C247.337 61.5908 247.261 61.3037 247.214 61.0928C247.021 61.8428 246.467 63.6973 245.553 66.6562H248.901ZM263.904 72H261.224V66.2607C261.224 65.5518 261.098 65.0215 260.846 64.6699C260.594 64.3125 260.192 64.1338 259.642 64.1338C258.892 64.1338 258.35 64.3857 258.016 64.8896C257.682 65.3877 257.515 66.2168 257.515 67.377V72H254.834V62.1738H256.882L257.242 63.4307H257.392C257.69 62.9561 258.101 62.5986 258.622 62.3584C259.149 62.1123 259.747 61.9893 260.415 61.9893C261.558 61.9893 262.425 62.2998 263.017 62.9209C263.608 63.5361 263.904 64.4268 263.904 65.5928V72ZM275.734 72H273.054V66.2607C273.054 65.5518 272.928 65.0215 272.676 64.6699C272.424 64.3125 272.022 64.1338 271.472 64.1338C270.722 64.1338 270.18 64.3857 269.846 64.8896C269.512 65.3877 269.345 66.2168 269.345 67.377V72H266.664V62.1738H268.712L269.072 63.4307H269.222C269.521 62.9561 269.931 62.5986 270.452 62.3584C270.979 62.1123 271.577 61.9893 272.245 61.9893C273.388 61.9893 274.255 62.2998 274.847 62.9209C275.438 63.5361 275.734 64.4268 275.734 65.5928V72ZM285.455 72L285.095 70.7432H284.954C284.667 71.2002 284.26 71.5547 283.732 71.8066C283.205 72.0527 282.604 72.1758 281.931 72.1758C280.776 72.1758 279.906 71.8682 279.32 71.2529C278.734 70.6318 278.441 69.7412 278.441 68.5811V62.1738H281.122V67.9131C281.122 68.6221 281.248 69.1553 281.5 69.5127C281.752 69.8643 282.153 70.04 282.704 70.04C283.454 70.04 283.996 69.791 284.33 69.293C284.664 68.7891 284.831 67.957 284.831 66.7969V62.1738H287.512V72H285.455ZM296.564 72L296.046 70.6641H295.976C295.524 71.2324 295.059 71.6279 294.578 71.8506C294.104 72.0674 293.482 72.1758 292.715 72.1758C291.771 72.1758 291.027 71.9062 290.482 71.3672C289.943 70.8281 289.674 70.0605 289.674 69.0645C289.674 68.0215 290.037 67.2539 290.764 66.7617C291.496 66.2637 292.598 65.9883 294.068 65.9355L295.773 65.8828V65.4521C295.773 64.4561 295.264 63.958 294.244 63.958C293.459 63.958 292.536 64.1953 291.476 64.6699L290.588 62.8594C291.719 62.2676 292.973 61.9717 294.35 61.9717C295.668 61.9717 296.679 62.2588 297.382 62.833C298.085 63.4072 298.437 64.2803 298.437 65.4521V72H296.564ZM295.773 67.4473L294.736 67.4824C293.957 67.5059 293.377 67.6465 292.996 67.9043C292.615 68.1621 292.425 68.5547 292.425 69.082C292.425 69.8379 292.858 70.2158 293.726 70.2158C294.347 70.2158 294.842 70.0371 295.211 69.6797C295.586 69.3223 295.773 68.8477 295.773 68.2559V67.4473ZM303.886 72H301.205V58.3242H303.886V72ZM317.052 61.2334C316.026 61.2334 315.232 61.6201 314.67 62.3936C314.107 63.1611 313.826 64.2334 313.826 65.6104C313.826 68.4756 314.901 69.9082 317.052 69.9082C317.954 69.9082 319.047 69.6826 320.33 69.2314V71.5166C319.275 71.9561 318.098 72.1758 316.797 72.1758C314.928 72.1758 313.498 71.6104 312.508 70.4795C311.518 69.3428 311.022 67.7139 311.022 65.5928C311.022 64.2568 311.266 63.0879 311.752 62.0859C312.238 61.0781 312.936 60.3076 313.844 59.7744C314.758 59.2354 315.827 58.9658 317.052 58.9658C318.3 58.9658 319.554 59.2676 320.813 59.8711L319.935 62.0859C319.454 61.8574 318.971 61.6582 318.484 61.4883C317.998 61.3184 317.521 61.2334 317.052 61.2334ZM326.931 63.8965C326.362 63.8965 325.917 64.0781 325.595 64.4414C325.272 64.7988 325.088 65.3086 325.041 65.9707H328.803C328.791 65.3086 328.618 64.7988 328.284 64.4414C327.95 64.0781 327.499 63.8965 326.931 63.8965ZM327.309 72.1758C325.727 72.1758 324.49 71.7393 323.6 70.8662C322.709 69.9932 322.264 68.7568 322.264 67.1572C322.264 65.5107 322.674 64.2393 323.494 63.3428C324.32 62.4404 325.46 61.9893 326.913 61.9893C328.302 61.9893 329.383 62.3848 330.156 63.1758C330.93 63.9668 331.316 65.0596 331.316 66.4541V67.7549H324.979C325.009 68.5166 325.234 69.1113 325.656 69.5391C326.078 69.9668 326.67 70.1807 327.432 70.1807C328.023 70.1807 328.583 70.1191 329.11 69.9961C329.638 69.873 330.188 69.6768 330.763 69.4072V71.4814C330.294 71.7158 329.793 71.8887 329.26 72C328.727 72.1172 328.076 72.1758 327.309 72.1758ZM342.566 72H339.886V66.2607C339.886 65.5518 339.76 65.0215 339.508 64.6699C339.256 64.3125 338.854 64.1338 338.304 64.1338C337.554 64.1338 337.012 64.3857 336.678 64.8896C336.344 65.3877 336.177 66.2168 336.177 67.377V72H333.496V62.1738H335.544L335.904 63.4307H336.054C336.353 62.9561 336.763 62.5986 337.284 62.3584C337.812 62.1123 338.409 61.9893 339.077 61.9893C340.22 61.9893 341.087 62.2998 341.679 62.9209C342.271 63.5361 342.566 64.4268 342.566 65.5928V72ZM352.182 69.082C352.182 70.0898 351.83 70.8574 351.127 71.3848C350.43 71.9121 349.384 72.1758 347.989 72.1758C347.274 72.1758 346.665 72.126 346.161 72.0264C345.657 71.9326 345.186 71.792 344.746 71.6045V69.3896C345.244 69.624 345.804 69.8203 346.425 69.9785C347.052 70.1367 347.603 70.2158 348.077 70.2158C349.05 70.2158 349.536 69.9346 349.536 69.3721C349.536 69.1611 349.472 68.9912 349.343 68.8623C349.214 68.7275 348.991 68.5781 348.675 68.4141C348.358 68.2441 347.937 68.0479 347.409 67.8252C346.653 67.5088 346.097 67.2158 345.739 66.9463C345.388 66.6768 345.13 66.3691 344.966 66.0234C344.808 65.6719 344.729 65.2412 344.729 64.7314C344.729 63.8584 345.065 63.1846 345.739 62.71C346.419 62.2295 347.38 61.9893 348.622 61.9893C349.806 61.9893 350.957 62.2471 352.076 62.7627L351.268 64.6963C350.775 64.4854 350.315 64.3125 349.888 64.1777C349.46 64.043 349.023 63.9756 348.578 63.9756C347.787 63.9756 347.392 64.1895 347.392 64.6172C347.392 64.8574 347.518 65.0654 347.77 65.2412C348.027 65.417 348.587 65.6777 349.448 66.0234C350.216 66.334 350.778 66.624 351.136 66.8936C351.493 67.1631 351.757 67.4736 351.927 67.8252C352.097 68.1768 352.182 68.5957 352.182 69.082ZM361.234 72L360.874 70.7432H360.733C360.446 71.2002 360.039 71.5547 359.512 71.8066C358.984 72.0527 358.384 72.1758 357.71 72.1758C356.556 72.1758 355.686 71.8682 355.1 71.2529C354.514 70.6318 354.221 69.7412 354.221 68.5811V62.1738H356.901V67.9131C356.901 68.6221 357.027 69.1553 357.279 69.5127C357.531 69.8643 357.933 70.04 358.483 70.04C359.233 70.04 359.775 69.791 360.109 69.293C360.443 68.7891 360.61 67.957 360.61 66.7969V62.1738H363.291V72H361.234ZM372.959 69.082C372.959 70.0898 372.607 70.8574 371.904 71.3848C371.207 71.9121 370.161 72.1758 368.767 72.1758C368.052 72.1758 367.442 72.126 366.938 72.0264C366.435 71.9326 365.963 71.792 365.523 71.6045V69.3896C366.021 69.624 366.581 69.8203 367.202 69.9785C367.829 70.1367 368.38 70.2158 368.854 70.2158C369.827 70.2158 370.313 69.9346 370.313 69.3721C370.313 69.1611 370.249 68.9912 370.12 68.8623C369.991 68.7275 369.769 68.5781 369.452 68.4141C369.136 68.2441 368.714 68.0479 368.187 67.8252C367.431 67.5088 366.874 67.2158 366.517 66.9463C366.165 66.6768 365.907 66.3691 365.743 66.0234C365.585 65.6719 365.506 65.2412 365.506 64.7314C365.506 63.8584 365.843 63.1846 366.517 62.71C367.196 62.2295 368.157 61.9893 369.399 61.9893C370.583 61.9893 371.734 62.2471 372.854 62.7627L372.045 64.6963C371.553 64.4854 371.093 64.3125 370.665 64.1777C370.237 64.043 369.801 63.9756 369.355 63.9756C368.564 63.9756 368.169 64.1895 368.169 64.6172C368.169 64.8574 368.295 65.0654 368.547 65.2412C368.805 65.417 369.364 65.6777 370.226 66.0234C370.993 66.334 371.556 66.624 371.913 66.8936C372.271 67.1631 372.534 67.4736 372.704 67.8252C372.874 68.1768 372.959 68.5957 372.959 69.082ZM382.662 64.8545H383.541C384.402 64.8545 385.038 64.7109 385.448 64.4238C385.858 64.1367 386.063 63.6855 386.063 63.0703C386.063 62.4609 385.853 62.0273 385.431 61.7695C385.015 61.5117 384.367 61.3828 383.488 61.3828H382.662V64.8545ZM382.662 67.0693V72H379.938V59.1504H383.682C385.428 59.1504 386.72 59.4697 387.558 60.1084C388.396 60.7412 388.814 61.7051 388.814 63C388.814 63.7559 388.606 64.4297 388.19 65.0215C387.774 65.6074 387.186 66.0674 386.424 66.4014C388.357 69.29 389.617 71.1562 390.203 72H387.18L384.112 67.0693H382.662ZM395.679 63.8965C395.11 63.8965 394.665 64.0781 394.343 64.4414C394.021 64.7988 393.836 65.3086 393.789 65.9707H397.551C397.539 65.3086 397.366 64.7988 397.032 64.4414C396.698 64.0781 396.247 63.8965 395.679 63.8965ZM396.057 72.1758C394.475 72.1758 393.238 71.7393 392.348 70.8662C391.457 69.9932 391.012 68.7568 391.012 67.1572C391.012 65.5107 391.422 64.2393 392.242 63.3428C393.068 62.4404 394.208 61.9893 395.661 61.9893C397.05 61.9893 398.131 62.3848 398.904 63.1758C399.678 63.9668 400.064 65.0596 400.064 66.4541V67.7549H393.728C393.757 68.5166 393.982 69.1113 394.404 69.5391C394.826 69.9668 395.418 70.1807 396.18 70.1807C396.771 70.1807 397.331 70.1191 397.858 69.9961C398.386 69.873 398.937 69.6768 399.511 69.4072V71.4814C399.042 71.7158 398.541 71.8887 398.008 72C397.475 72.1172 396.824 72.1758 396.057 72.1758ZM404.582 72L400.838 62.1738H403.642L405.54 67.7725C405.751 68.4814 405.883 69.1523 405.936 69.7852H405.988C406.018 69.2227 406.149 68.5518 406.384 67.7725L408.273 62.1738H411.077L407.333 72H404.582ZM412.378 59.6338C412.378 58.7607 412.864 58.3242 413.837 58.3242C414.81 58.3242 415.296 58.7607 415.296 59.6338C415.296 60.0498 415.173 60.375 414.927 60.6094C414.687 60.8379 414.323 60.9521 413.837 60.9521C412.864 60.9521 412.378 60.5127 412.378 59.6338ZM415.173 72H412.492V62.1738H415.173V72ZM422.063 63.8965C421.495 63.8965 421.05 64.0781 420.728 64.4414C420.405 64.7988 420.221 65.3086 420.174 65.9707H423.936C423.924 65.3086 423.751 64.7988 423.417 64.4414C423.083 64.0781 422.632 63.8965 422.063 63.8965ZM422.441 72.1758C420.859 72.1758 419.623 71.7393 418.732 70.8662C417.842 69.9932 417.396 68.7568 417.396 67.1572C417.396 65.5107 417.807 64.2393 418.627 63.3428C419.453 62.4404 420.593 61.9893 422.046 61.9893C423.435 61.9893 424.516 62.3848 425.289 63.1758C426.062 63.9668 426.449 65.0596 426.449 66.4541V67.7549H420.112C420.142 68.5166 420.367 69.1113 420.789 69.5391C421.211 69.9668 421.803 70.1807 422.564 70.1807C423.156 70.1807 423.716 70.1191 424.243 69.9961C424.771 69.873 425.321 69.6768 425.896 69.4072V71.4814C425.427 71.7158 424.926 71.8887 424.393 72C423.859 72.1172 423.209 72.1758 422.441 72.1758ZM436.706 72L435.95 68.5635L434.931 64.2217H434.869L433.076 72H430.193L427.398 62.1738H430.07L431.204 66.5244C431.386 67.3037 431.57 68.3789 431.758 69.75H431.811C431.834 69.3047 431.937 68.5986 432.118 67.6318L432.259 66.8848L433.472 62.1738H436.425L437.576 66.8848C437.6 67.0137 437.635 67.2041 437.682 67.4561C437.734 67.708 437.784 67.9775 437.831 68.2646C437.878 68.5459 437.919 68.8242 437.954 69.0996C437.995 69.3691 438.019 69.5859 438.024 69.75H438.077C438.13 69.3281 438.224 68.751 438.358 68.0186C438.493 67.2803 438.59 66.7822 438.648 66.5244L439.826 62.1738H442.454L439.624 72H436.706Z" fill="black"/>
<path d="M502.342 119.854H503.221C504.082 119.854 504.718 119.711 505.128 119.424C505.538 119.137 505.743 118.686 505.743 118.07C505.743 117.461 505.532 117.027 505.11 116.77C504.694 116.512 504.047 116.383 503.168 116.383H502.342V119.854ZM502.342 122.069V127H499.617V114.15H503.361C505.107 114.15 506.399 114.47 507.237 115.108C508.075 115.741 508.494 116.705 508.494 118C508.494 118.756 508.286 119.43 507.87 120.021C507.454 120.607 506.865 121.067 506.104 121.401C508.037 124.29 509.297 126.156 509.883 127H506.859L503.792 122.069H502.342ZM515.358 118.896C514.79 118.896 514.345 119.078 514.022 119.441C513.7 119.799 513.516 120.309 513.469 120.971H517.23C517.219 120.309 517.046 119.799 516.712 119.441C516.378 119.078 515.927 118.896 515.358 118.896ZM515.736 127.176C514.154 127.176 512.918 126.739 512.027 125.866C511.137 124.993 510.691 123.757 510.691 122.157C510.691 120.511 511.102 119.239 511.922 118.343C512.748 117.44 513.888 116.989 515.341 116.989C516.729 116.989 517.811 117.385 518.584 118.176C519.357 118.967 519.744 120.06 519.744 121.454V122.755H513.407C513.437 123.517 513.662 124.111 514.084 124.539C514.506 124.967 515.098 125.181 515.859 125.181C516.451 125.181 517.011 125.119 517.538 124.996C518.065 124.873 518.616 124.677 519.19 124.407V126.481C518.722 126.716 518.221 126.889 517.688 127C517.154 127.117 516.504 127.176 515.736 127.176ZM524.262 127L520.518 117.174H523.321L525.22 122.772C525.431 123.481 525.562 124.152 525.615 124.785H525.668C525.697 124.223 525.829 123.552 526.063 122.772L527.953 117.174H530.757L527.013 127H524.262ZM532.058 114.634C532.058 113.761 532.544 113.324 533.517 113.324C534.489 113.324 534.976 113.761 534.976 114.634C534.976 115.05 534.853 115.375 534.606 115.609C534.366 115.838 534.003 115.952 533.517 115.952C532.544 115.952 532.058 115.513 532.058 114.634ZM534.853 127H532.172V117.174H534.853V127ZM541.743 118.896C541.175 118.896 540.729 119.078 540.407 119.441C540.085 119.799 539.9 120.309 539.854 120.971H543.615C543.604 120.309 543.431 119.799 543.097 119.441C542.763 119.078 542.312 118.896 541.743 118.896ZM542.121 127.176C540.539 127.176 539.303 126.739 538.412 125.866C537.521 124.993 537.076 123.757 537.076 122.157C537.076 120.511 537.486 119.239 538.307 118.343C539.133 117.44 540.272 116.989 541.726 116.989C543.114 116.989 544.195 117.385 544.969 118.176C545.742 118.967 546.129 120.06 546.129 121.454V122.755H539.792C539.821 123.517 540.047 124.111 540.469 124.539C540.891 124.967 541.482 125.181 542.244 125.181C542.836 125.181 543.396 125.119 543.923 124.996C544.45 124.873 545.001 124.677 545.575 124.407V126.481C545.106 126.716 544.605 126.889 544.072 127C543.539 127.117 542.889 127.176 542.121 127.176ZM556.386 127L555.63 123.563L554.61 119.222H554.549L552.756 127H549.873L547.078 117.174H549.75L550.884 121.524C551.065 122.304 551.25 123.379 551.438 124.75H551.49C551.514 124.305 551.616 123.599 551.798 122.632L551.938 121.885L553.151 117.174H556.104L557.256 121.885C557.279 122.014 557.314 122.204 557.361 122.456C557.414 122.708 557.464 122.978 557.511 123.265C557.558 123.546 557.599 123.824 557.634 124.1C557.675 124.369 557.698 124.586 557.704 124.75H557.757C557.81 124.328 557.903 123.751 558.038 123.019C558.173 122.28 558.27 121.782 558.328 121.524L559.506 117.174H562.134L559.304 127H556.386ZM574.641 127L574.122 125.664H574.052C573.601 126.232 573.135 126.628 572.654 126.851C572.18 127.067 571.559 127.176 570.791 127.176C569.848 127.176 569.104 126.906 568.559 126.367C568.02 125.828 567.75 125.061 567.75 124.064C567.75 123.021 568.113 122.254 568.84 121.762C569.572 121.264 570.674 120.988 572.145 120.936L573.85 120.883V120.452C573.85 119.456 573.34 118.958 572.32 118.958C571.535 118.958 570.612 119.195 569.552 119.67L568.664 117.859C569.795 117.268 571.049 116.972 572.426 116.972C573.744 116.972 574.755 117.259 575.458 117.833C576.161 118.407 576.513 119.28 576.513 120.452V127H574.641ZM573.85 122.447L572.812 122.482C572.033 122.506 571.453 122.646 571.072 122.904C570.691 123.162 570.501 123.555 570.501 124.082C570.501 124.838 570.935 125.216 571.802 125.216C572.423 125.216 572.918 125.037 573.287 124.68C573.662 124.322 573.85 123.848 573.85 123.256V122.447ZM588.352 127H585.671V121.261C585.671 120.552 585.545 120.021 585.293 119.67C585.041 119.312 584.64 119.134 584.089 119.134C583.339 119.134 582.797 119.386 582.463 119.89C582.129 120.388 581.962 121.217 581.962 122.377V127H579.281V117.174H581.329L581.689 118.431H581.839C582.138 117.956 582.548 117.599 583.069 117.358C583.597 117.112 584.194 116.989 584.862 116.989C586.005 116.989 586.872 117.3 587.464 117.921C588.056 118.536 588.352 119.427 588.352 120.593V127ZM594.223 127.176C593.068 127.176 592.16 126.728 591.498 125.831C590.842 124.935 590.514 123.692 590.514 122.104C590.514 120.493 590.848 119.239 591.516 118.343C592.189 117.44 593.115 116.989 594.293 116.989C595.529 116.989 596.473 117.47 597.123 118.431H597.211C597.076 117.698 597.009 117.045 597.009 116.471V113.324H599.698V127H597.642L597.123 125.726H597.009C596.399 126.692 595.471 127.176 594.223 127.176ZM595.163 125.04C595.849 125.04 596.35 124.841 596.666 124.442C596.988 124.044 597.164 123.367 597.193 122.412V122.122C597.193 121.067 597.029 120.312 596.701 119.854C596.379 119.397 595.852 119.169 595.119 119.169C594.521 119.169 594.056 119.424 593.722 119.934C593.394 120.438 593.229 121.173 593.229 122.14C593.229 123.106 593.396 123.833 593.73 124.319C594.064 124.8 594.542 125.04 595.163 125.04ZM503.396 152.176C500.338 152.176 498.809 150.497 498.809 147.14C498.809 145.47 499.225 144.195 500.057 143.316C500.889 142.432 502.081 141.989 503.634 141.989C504.771 141.989 505.79 142.212 506.692 142.657L505.901 144.731C505.479 144.562 505.087 144.424 504.724 144.318C504.36 144.207 503.997 144.151 503.634 144.151C502.239 144.151 501.542 145.142 501.542 147.122C501.542 149.044 502.239 150.005 503.634 150.005C504.149 150.005 504.627 149.938 505.066 149.803C505.506 149.662 505.945 149.445 506.385 149.152V151.446C505.951 151.722 505.512 151.912 505.066 152.018C504.627 152.123 504.07 152.176 503.396 152.176ZM510.806 147.069C510.806 148.042 510.964 148.777 511.28 149.275C511.603 149.773 512.124 150.022 512.845 150.022C513.56 150.022 514.072 149.776 514.383 149.284C514.699 148.786 514.857 148.048 514.857 147.069C514.857 146.097 514.699 145.367 514.383 144.881C514.066 144.395 513.548 144.151 512.827 144.151C512.112 144.151 511.597 144.395 511.28 144.881C510.964 145.361 510.806 146.091 510.806 147.069ZM517.6 147.069C517.6 148.669 517.178 149.92 516.334 150.822C515.49 151.725 514.315 152.176 512.81 152.176C511.866 152.176 511.034 151.971 510.313 151.561C509.593 151.145 509.039 150.55 508.652 149.776C508.266 149.003 508.072 148.101 508.072 147.069C508.072 145.464 508.491 144.216 509.329 143.325C510.167 142.435 511.345 141.989 512.862 141.989C513.806 141.989 514.638 142.194 515.358 142.604C516.079 143.015 516.633 143.604 517.02 144.371C517.406 145.139 517.6 146.038 517.6 147.069ZM525.299 141.989C525.662 141.989 525.964 142.016 526.204 142.068L526.002 144.582C525.785 144.523 525.521 144.494 525.211 144.494C524.355 144.494 523.688 144.714 523.207 145.153C522.732 145.593 522.495 146.208 522.495 146.999V152H519.814V142.174H521.845L522.24 143.826H522.372C522.677 143.275 523.087 142.833 523.603 142.499C524.124 142.159 524.689 141.989 525.299 141.989ZM533.473 141.989C533.836 141.989 534.138 142.016 534.378 142.068L534.176 144.582C533.959 144.523 533.695 144.494 533.385 144.494C532.529 144.494 531.861 144.714 531.381 145.153C530.906 145.593 530.669 146.208 530.669 146.999V152H527.988V142.174H530.019L530.414 143.826H530.546C530.851 143.275 531.261 142.833 531.776 142.499C532.298 142.159 532.863 141.989 533.473 141.989ZM540.231 143.896C539.663 143.896 539.218 144.078 538.896 144.441C538.573 144.799 538.389 145.309 538.342 145.971H542.104C542.092 145.309 541.919 144.799 541.585 144.441C541.251 144.078 540.8 143.896 540.231 143.896ZM540.609 152.176C539.027 152.176 537.791 151.739 536.9 150.866C536.01 149.993 535.564 148.757 535.564 147.157C535.564 145.511 535.975 144.239 536.795 143.343C537.621 142.44 538.761 141.989 540.214 141.989C541.603 141.989 542.684 142.385 543.457 143.176C544.23 143.967 544.617 145.06 544.617 146.454V147.755H538.28C538.31 148.517 538.535 149.111 538.957 149.539C539.379 149.967 539.971 150.181 540.732 150.181C541.324 150.181 541.884 150.119 542.411 149.996C542.938 149.873 543.489 149.677 544.063 149.407V151.481C543.595 151.716 543.094 151.889 542.561 152C542.027 152.117 541.377 152.176 540.609 152.176ZM550.787 152.176C547.729 152.176 546.199 150.497 546.199 147.14C546.199 145.47 546.615 144.195 547.447 143.316C548.279 142.432 549.472 141.989 551.024 141.989C552.161 141.989 553.181 142.212 554.083 142.657L553.292 144.731C552.87 144.562 552.478 144.424 552.114 144.318C551.751 144.207 551.388 144.151 551.024 144.151C549.63 144.151 548.933 145.142 548.933 147.122C548.933 149.044 549.63 150.005 551.024 150.005C551.54 150.005 552.018 149.938 552.457 149.803C552.896 149.662 553.336 149.445 553.775 149.152V151.446C553.342 151.722 552.902 151.912 552.457 152.018C552.018 152.123 551.461 152.176 550.787 152.176ZM560.2 150.04C560.669 150.04 561.231 149.938 561.888 149.732V151.728C561.22 152.026 560.399 152.176 559.427 152.176C558.354 152.176 557.572 151.906 557.08 151.367C556.594 150.822 556.351 150.008 556.351 148.924V144.187H555.067V143.053L556.544 142.156L557.317 140.082H559.031V142.174H561.782V144.187H559.031V148.924C559.031 149.305 559.137 149.586 559.348 149.768C559.564 149.949 559.849 150.04 560.2 150.04ZM572.628 143.896C572.06 143.896 571.614 144.078 571.292 144.441C570.97 144.799 570.785 145.309 570.738 145.971H574.5C574.488 145.309 574.315 144.799 573.981 144.441C573.647 144.078 573.196 143.896 572.628 143.896ZM573.006 152.176C571.424 152.176 570.188 151.739 569.297 150.866C568.406 149.993 567.961 148.757 567.961 147.157C567.961 145.511 568.371 144.239 569.191 143.343C570.018 142.44 571.157 141.989 572.61 141.989C573.999 141.989 575.08 142.385 575.854 143.176C576.627 143.967 577.014 145.06 577.014 146.454V147.755H570.677C570.706 148.517 570.932 149.111 571.354 149.539C571.775 149.967 572.367 150.181 573.129 150.181C573.721 150.181 574.28 150.119 574.808 149.996C575.335 149.873 575.886 149.677 576.46 149.407V151.481C575.991 151.716 575.49 151.889 574.957 152C574.424 152.117 573.773 152.176 573.006 152.176ZM584.678 141.989C585.041 141.989 585.343 142.016 585.583 142.068L585.381 144.582C585.164 144.523 584.9 144.494 584.59 144.494C583.734 144.494 583.066 144.714 582.586 145.153C582.111 145.593 581.874 146.208 581.874 146.999V152H579.193V142.174H581.224L581.619 143.826H581.751C582.056 143.275 582.466 142.833 582.981 142.499C583.503 142.159 584.068 141.989 584.678 141.989ZM592.852 141.989C593.215 141.989 593.517 142.016 593.757 142.068L593.555 144.582C593.338 144.523 593.074 144.494 592.764 144.494C591.908 144.494 591.24 144.714 590.76 145.153C590.285 145.593 590.048 146.208 590.048 146.999V152H587.367V142.174H589.397L589.793 143.826H589.925C590.229 143.275 590.64 142.833 591.155 142.499C591.677 142.159 592.242 141.989 592.852 141.989ZM597.677 147.069C597.677 148.042 597.835 148.777 598.151 149.275C598.474 149.773 598.995 150.022 599.716 150.022C600.431 150.022 600.943 149.776 601.254 149.284C601.57 148.786 601.729 148.048 601.729 147.069C601.729 146.097 601.57 145.367 601.254 144.881C600.938 144.395 600.419 144.151 599.698 144.151C598.983 144.151 598.468 144.395 598.151 144.881C597.835 145.361 597.677 146.091 597.677 147.069ZM604.471 147.069C604.471 148.669 604.049 149.92 603.205 150.822C602.361 151.725 601.187 152.176 599.681 152.176C598.737 152.176 597.905 151.971 597.185 151.561C596.464 151.145 595.91 150.55 595.523 149.776C595.137 149.003 594.943 148.101 594.943 147.069C594.943 145.464 595.362 144.216 596.2 143.325C597.038 142.435 598.216 141.989 599.733 141.989C600.677 141.989 601.509 142.194 602.229 142.604C602.95 143.015 603.504 143.604 603.891 144.371C604.277 145.139 604.471 146.038 604.471 147.069ZM612.17 141.989C612.533 141.989 612.835 142.016 613.075 142.068L612.873 144.582C612.656 144.523 612.393 144.494 612.082 144.494C611.227 144.494 610.559 144.714 610.078 145.153C609.604 145.593 609.366 146.208 609.366 146.999V152H606.686V142.174H608.716L609.111 143.826H609.243C609.548 143.275 609.958 142.833 610.474 142.499C610.995 142.159 611.561 141.989 612.17 141.989ZM621.715 149.082C621.715 150.09 621.363 150.857 620.66 151.385C619.963 151.912 618.917 152.176 617.522 152.176C616.808 152.176 616.198 152.126 615.694 152.026C615.19 151.933 614.719 151.792 614.279 151.604V149.39C614.777 149.624 615.337 149.82 615.958 149.979C616.585 150.137 617.136 150.216 617.61 150.216C618.583 150.216 619.069 149.935 619.069 149.372C619.069 149.161 619.005 148.991 618.876 148.862C618.747 148.728 618.524 148.578 618.208 148.414C617.892 148.244 617.47 148.048 616.942 147.825C616.187 147.509 615.63 147.216 615.272 146.946C614.921 146.677 614.663 146.369 614.499 146.023C614.341 145.672 614.262 145.241 614.262 144.731C614.262 143.858 614.599 143.185 615.272 142.71C615.952 142.229 616.913 141.989 618.155 141.989C619.339 141.989 620.49 142.247 621.609 142.763L620.801 144.696C620.309 144.485 619.849 144.312 619.421 144.178C618.993 144.043 618.557 143.976 618.111 143.976C617.32 143.976 616.925 144.189 616.925 144.617C616.925 144.857 617.051 145.065 617.303 145.241C617.561 145.417 618.12 145.678 618.981 146.023C619.749 146.334 620.312 146.624 620.669 146.894C621.026 147.163 621.29 147.474 621.46 147.825C621.63 148.177 621.715 148.596 621.715 149.082Z" fill="black"/>
<path d="M739.202 123.432C739.202 124.592 738.783 125.506 737.945 126.174C737.113 126.842 735.953 127.176 734.465 127.176C733.094 127.176 731.881 126.918 730.826 126.402V123.871C731.693 124.258 732.426 124.53 733.023 124.688C733.627 124.847 734.178 124.926 734.676 124.926C735.273 124.926 735.73 124.812 736.047 124.583C736.369 124.354 736.53 124.015 736.53 123.563C736.53 123.312 736.46 123.089 736.319 122.896C736.179 122.696 735.971 122.506 735.695 122.324C735.426 122.143 734.872 121.853 734.034 121.454C733.249 121.085 732.66 120.73 732.268 120.391C731.875 120.051 731.562 119.655 731.327 119.204C731.093 118.753 730.976 118.226 730.976 117.622C730.976 116.485 731.359 115.592 732.127 114.941C732.9 114.291 733.967 113.966 735.326 113.966C735.994 113.966 736.63 114.045 737.233 114.203C737.843 114.361 738.479 114.584 739.141 114.871L738.262 116.989C737.576 116.708 737.008 116.512 736.557 116.4C736.111 116.289 735.672 116.233 735.238 116.233C734.723 116.233 734.327 116.354 734.052 116.594C733.776 116.834 733.639 117.147 733.639 117.534C733.639 117.774 733.694 117.985 733.806 118.167C733.917 118.343 734.093 118.516 734.333 118.686C734.579 118.85 735.156 119.148 736.064 119.582C737.266 120.156 738.089 120.733 738.534 121.313C738.979 121.888 739.202 122.594 739.202 123.432ZM748.281 127L747.921 125.743H747.78C747.493 126.2 747.086 126.555 746.559 126.807C746.031 127.053 745.431 127.176 744.757 127.176C743.603 127.176 742.732 126.868 742.146 126.253C741.561 125.632 741.268 124.741 741.268 123.581V117.174H743.948V122.913C743.948 123.622 744.074 124.155 744.326 124.513C744.578 124.864 744.979 125.04 745.53 125.04C746.28 125.04 746.822 124.791 747.156 124.293C747.49 123.789 747.657 122.957 747.657 121.797V117.174H750.338V127H748.281ZM758.617 116.989C759.777 116.989 760.686 117.443 761.342 118.352C761.998 119.254 762.326 120.493 762.326 122.069C762.326 123.692 761.986 124.949 761.307 125.84C760.633 126.73 759.713 127.176 758.547 127.176C757.393 127.176 756.487 126.757 755.831 125.919H755.646L755.198 127H753.15V113.324H755.831V116.506C755.831 116.91 755.796 117.558 755.726 118.448H755.831C756.458 117.476 757.387 116.989 758.617 116.989ZM757.756 119.134C757.094 119.134 756.61 119.339 756.306 119.749C756.001 120.153 755.843 120.824 755.831 121.762V122.052C755.831 123.106 755.986 123.862 756.297 124.319C756.613 124.776 757.111 125.005 757.791 125.005C758.342 125.005 758.778 124.753 759.101 124.249C759.429 123.739 759.593 123.001 759.593 122.034C759.593 121.067 759.429 120.344 759.101 119.863C758.772 119.377 758.324 119.134 757.756 119.134ZM773.339 127H770.658V121.261C770.658 120.552 770.538 120.021 770.298 119.67C770.063 119.312 769.691 119.134 769.182 119.134C768.496 119.134 767.998 119.386 767.688 119.89C767.377 120.394 767.222 121.223 767.222 122.377V127H764.541V117.174H766.589L766.949 118.431H767.099C767.362 117.979 767.743 117.628 768.241 117.376C768.739 117.118 769.311 116.989 769.955 116.989C771.426 116.989 772.422 117.47 772.943 118.431H773.181C773.444 117.974 773.831 117.619 774.341 117.367C774.856 117.115 775.437 116.989 776.081 116.989C777.194 116.989 778.035 117.276 778.604 117.851C779.178 118.419 779.465 119.333 779.465 120.593V127H776.775V121.261C776.775 120.552 776.655 120.021 776.415 119.67C776.181 119.312 775.809 119.134 775.299 119.134C774.643 119.134 774.15 119.368 773.822 119.837C773.5 120.306 773.339 121.05 773.339 122.069V127ZM782.11 114.634C782.11 113.761 782.597 113.324 783.569 113.324C784.542 113.324 785.028 113.761 785.028 114.634C785.028 115.05 784.905 115.375 784.659 115.609C784.419 115.838 784.056 115.952 783.569 115.952C782.597 115.952 782.11 115.513 782.11 114.634ZM784.905 127H782.225V117.174H784.905V127ZM791.866 125.04C792.335 125.04 792.897 124.938 793.554 124.732V126.728C792.886 127.026 792.065 127.176 791.093 127.176C790.021 127.176 789.238 126.906 788.746 126.367C788.26 125.822 788.017 125.008 788.017 123.924V119.187H786.733V118.053L788.21 117.156L788.983 115.082H790.697V117.174H793.448V119.187H790.697V123.924C790.697 124.305 790.803 124.586 791.014 124.768C791.23 124.949 791.515 125.04 791.866 125.04ZM805.656 119.187H803.336V127H800.655V119.187H799.179V117.895L800.655 117.174V116.453C800.655 115.334 800.931 114.517 801.481 114.001C802.032 113.485 802.914 113.228 804.127 113.228C805.053 113.228 805.876 113.365 806.597 113.641L805.911 115.609C805.372 115.439 804.874 115.354 804.417 115.354C804.036 115.354 803.761 115.469 803.591 115.697C803.421 115.92 803.336 116.207 803.336 116.559V117.174H805.656V119.187ZM809.339 122.069C809.339 123.042 809.497 123.777 809.813 124.275C810.136 124.773 810.657 125.022 811.378 125.022C812.093 125.022 812.605 124.776 812.916 124.284C813.232 123.786 813.391 123.048 813.391 122.069C813.391 121.097 813.232 120.367 812.916 119.881C812.6 119.395 812.081 119.151 811.36 119.151C810.646 119.151 810.13 119.395 809.813 119.881C809.497 120.361 809.339 121.091 809.339 122.069ZM816.133 122.069C816.133 123.669 815.711 124.92 814.867 125.822C814.023 126.725 812.849 127.176 811.343 127.176C810.399 127.176 809.567 126.971 808.847 126.561C808.126 126.145 807.572 125.55 807.186 124.776C806.799 124.003 806.605 123.101 806.605 122.069C806.605 120.464 807.024 119.216 807.862 118.325C808.7 117.435 809.878 116.989 811.396 116.989C812.339 116.989 813.171 117.194 813.892 117.604C814.612 118.015 815.166 118.604 815.553 119.371C815.939 120.139 816.133 121.038 816.133 122.069ZM823.832 116.989C824.195 116.989 824.497 117.016 824.737 117.068L824.535 119.582C824.318 119.523 824.055 119.494 823.744 119.494C822.889 119.494 822.221 119.714 821.74 120.153C821.266 120.593 821.028 121.208 821.028 121.999V127H818.348V117.174H820.378L820.773 118.826H820.905C821.21 118.275 821.62 117.833 822.136 117.499C822.657 117.159 823.223 116.989 823.832 116.989ZM735.546 150.04C736.015 150.04 736.577 149.938 737.233 149.732V151.728C736.565 152.026 735.745 152.176 734.772 152.176C733.7 152.176 732.918 151.906 732.426 151.367C731.939 150.822 731.696 150.008 731.696 148.924V144.187H730.413V143.053L731.89 142.156L732.663 140.082H734.377V142.174H737.128V144.187H734.377V148.924C734.377 149.305 734.482 149.586 734.693 149.768C734.91 149.949 735.194 150.04 735.546 150.04ZM743.298 143.896C742.729 143.896 742.284 144.078 741.962 144.441C741.64 144.799 741.455 145.309 741.408 145.971H745.17C745.158 145.309 744.985 144.799 744.651 144.441C744.317 144.078 743.866 143.896 743.298 143.896ZM743.676 152.176C742.094 152.176 740.857 151.739 739.967 150.866C739.076 149.993 738.631 148.757 738.631 147.157C738.631 145.511 739.041 144.239 739.861 143.343C740.688 142.44 741.827 141.989 743.28 141.989C744.669 141.989 745.75 142.385 746.523 143.176C747.297 143.967 747.684 145.06 747.684 146.454V147.755H741.347C741.376 148.517 741.602 149.111 742.023 149.539C742.445 149.967 743.037 150.181 743.799 150.181C744.391 150.181 744.95 150.119 745.478 149.996C746.005 149.873 746.556 149.677 747.13 149.407V151.481C746.661 151.716 746.16 151.889 745.627 152C745.094 152.117 744.443 152.176 743.676 152.176ZM756.719 149.082C756.719 150.09 756.367 150.857 755.664 151.385C754.967 151.912 753.921 152.176 752.526 152.176C751.812 152.176 751.202 152.126 750.698 152.026C750.194 151.933 749.723 151.792 749.283 151.604V149.39C749.781 149.624 750.341 149.82 750.962 149.979C751.589 150.137 752.14 150.216 752.614 150.216C753.587 150.216 754.073 149.935 754.073 149.372C754.073 149.161 754.009 148.991 753.88 148.862C753.751 148.728 753.528 148.578 753.212 148.414C752.896 148.244 752.474 148.048 751.946 147.825C751.19 147.509 750.634 147.216 750.276 146.946C749.925 146.677 749.667 146.369 749.503 146.023C749.345 145.672 749.266 145.241 749.266 144.731C749.266 143.858 749.603 143.185 750.276 142.71C750.956 142.229 751.917 141.989 753.159 141.989C754.343 141.989 755.494 142.247 756.613 142.763L755.805 144.696C755.312 144.485 754.853 144.312 754.425 144.178C753.997 144.043 753.561 143.976 753.115 143.976C752.324 143.976 751.929 144.189 751.929 144.617C751.929 144.857 752.055 145.065 752.307 145.241C752.564 145.417 753.124 145.678 753.985 146.023C754.753 146.334 755.315 146.624 755.673 146.894C756.03 147.163 756.294 147.474 756.464 147.825C756.634 148.177 756.719 148.596 756.719 149.082ZM762.95 150.04C763.419 150.04 763.981 149.938 764.638 149.732V151.728C763.97 152.026 763.149 152.176 762.177 152.176C761.104 152.176 760.322 151.906 759.83 151.367C759.344 150.822 759.101 150.008 759.101 148.924V144.187H757.817V143.053L759.294 142.156L760.067 140.082H761.781V142.174H764.532V144.187H761.781V148.924C761.781 149.305 761.887 149.586 762.098 149.768C762.314 149.949 762.599 150.04 762.95 150.04ZM766.519 139.634C766.519 138.761 767.005 138.324 767.978 138.324C768.95 138.324 769.437 138.761 769.437 139.634C769.437 140.05 769.313 140.375 769.067 140.609C768.827 140.838 768.464 140.952 767.978 140.952C767.005 140.952 766.519 140.513 766.519 139.634ZM769.313 152H766.633V142.174H769.313V152ZM781.205 152H778.524V146.261C778.524 145.552 778.398 145.021 778.146 144.67C777.895 144.312 777.493 144.134 776.942 144.134C776.192 144.134 775.65 144.386 775.316 144.89C774.982 145.388 774.815 146.217 774.815 147.377V152H772.135V142.174H774.183L774.543 143.431H774.692C774.991 142.956 775.401 142.599 775.923 142.358C776.45 142.112 777.048 141.989 777.716 141.989C778.858 141.989 779.726 142.3 780.317 142.921C780.909 143.536 781.205 144.427 781.205 145.593V152ZM792.517 142.174V143.536L790.979 143.932C791.26 144.371 791.4 144.863 791.4 145.408C791.4 146.463 791.031 147.286 790.293 147.878C789.561 148.464 788.541 148.757 787.234 148.757L786.751 148.73L786.355 148.687C786.08 148.897 785.942 149.132 785.942 149.39C785.942 149.776 786.435 149.97 787.419 149.97H789.089C790.167 149.97 790.987 150.201 791.55 150.664C792.118 151.127 792.402 151.807 792.402 152.703C792.402 153.852 791.922 154.742 790.961 155.375C790.006 156.008 788.632 156.324 786.839 156.324C785.468 156.324 784.419 156.084 783.692 155.604C782.972 155.129 782.611 154.461 782.611 153.6C782.611 153.008 782.796 152.513 783.165 152.114C783.534 151.716 784.076 151.432 784.791 151.262C784.516 151.145 784.275 150.954 784.07 150.69C783.865 150.421 783.763 150.137 783.763 149.838C783.763 149.463 783.871 149.152 784.088 148.906C784.305 148.654 784.618 148.408 785.028 148.168C784.513 147.945 784.103 147.588 783.798 147.096C783.499 146.604 783.35 146.023 783.35 145.355C783.35 144.283 783.698 143.454 784.396 142.868C785.093 142.282 786.089 141.989 787.384 141.989C787.659 141.989 787.984 142.016 788.359 142.068C788.74 142.115 788.983 142.15 789.089 142.174H792.517ZM784.932 153.389C784.932 153.758 785.107 154.048 785.459 154.259C785.816 154.47 786.314 154.575 786.953 154.575C787.914 154.575 788.667 154.443 789.212 154.18C789.757 153.916 790.029 153.556 790.029 153.099C790.029 152.729 789.868 152.475 789.546 152.334C789.224 152.193 788.726 152.123 788.052 152.123H786.663C786.171 152.123 785.758 152.237 785.424 152.466C785.096 152.7 784.932 153.008 784.932 153.389ZM785.907 145.391C785.907 145.924 786.027 146.346 786.268 146.656C786.514 146.967 786.886 147.122 787.384 147.122C787.888 147.122 788.257 146.967 788.491 146.656C788.726 146.346 788.843 145.924 788.843 145.391C788.843 144.207 788.356 143.615 787.384 143.615C786.399 143.615 785.907 144.207 785.907 145.391Z" fill="black"/>
<path d="M241.707 133.707C242.098 133.317 242.098 132.683 241.707 132.293L235.343 125.929C234.953 125.538 234.319 125.538 233.929 125.929C233.538 126.319 233.538 126.953 233.929 127.343L239.586 133L233.929 138.657C233.538 139.047 233.538 139.681 233.929 140.071C234.319 140.462 234.953 140.462 235.343 140.071L241.707 133.707ZM195 134H241V132H195V134Z" fill="black"/>
<path d="M473.707 133.707C474.098 133.317 474.098 132.683 473.707 132.293L467.343 125.929C466.953 125.538 466.319 125.538 465.929 125.929C465.538 126.319 465.538 126.953 465.929 127.343L471.586 133L465.929 138.657C465.538 139.047 465.538 139.681 465.929 140.071C466.319 140.462 466.953 140.462 467.343 140.071L473.707 133.707ZM429 134H473V132H429V134Z" fill="black"/>
<path d="M705.707 133.707C706.098 133.317 706.098 132.683 705.707 132.293L699.343 125.929C698.953 125.538 698.319 125.538 697.929 125.929C697.538 126.319 697.538 126.953 697.929 127.343L703.586 133L697.929 138.657C697.538 139.047 697.538 139.681 697.929 140.071C698.319 140.462 698.953 140.462 699.343 140.071L705.707 133.707ZM661 134H705V132H661V134Z" fill="black"/>
</svg>
